<!-- Generated by IcoMoon.io -->
<svg version="1.1" xmlns="http://www.w3.org/2000/svg" width="512" height="512" viewBox="0 0 512 512">
<title></title>
<path fill="#ecf0f1" d="M491.097 292.574c-14.63 103.314-95.577 185.143-198.528 201.088v18.342h-73.143v-18.342c-102.945-15.927-183.901-97.774-198.549-201.088h-20.886v-73.143h21.726c16.896-100.442 96.785-179.383 197.705-194.999v-24.43h73.143v24.43c100.937 15.616 180.791 94.553 197.705 194.999h21.726v73.143h-20.902zM237.714 493.713h36.574v-36.574h-36.574v36.574zM18.287 237.714v36.574h36.574v-36.574h-36.574zM274.286 18.287h-36.574v36.574h36.574v-36.574zM292.574 52.151v20.992h-73.143v-20.992c-85.76 15.070-153.621 81.975-169.911 167.278h23.625v73.143h-24.614c14.174 88.174 83.106 157.952 170.901 173.367v-27.081h73.143v27.081c87.79-15.433 156.727-85.193 170.901-173.367h-24.614v-73.143h23.625c-16.311-85.303-84.151-152.214-169.911-167.278zM493.713 237.714h-36.574v36.574h36.574v-36.574z"></path>
</svg>
