<!-- Generated by IcoMoon.io -->
<svg version="1.1" xmlns="http://www.w3.org/2000/svg" width="475" height="512" viewBox="0 0 475 512">
<title></title>

<path fill="#feca57" d="M305.714 324c0-5.313-4.402-9.714-9.714-9.714s-9.714 4.402-9.714 9.714 4.402 9.714 9.714 9.714 9.714-4.402 9.714-9.714zM344.572 324c0-5.313-4.402-9.714-9.714-9.714s-9.714 4.402-9.714 9.714 4.402 9.714 9.714 9.714 9.714-4.402 9.714-9.714zM364 290v48.572c0 8.046-6.526 14.572-14.572 14.572h-223.429c-8.046 0-14.572-6.526-14.572-14.572v-48.572c0-8.046 6.526-14.572 14.572-14.572h70.58l20.49 20.642c5.615 5.464 12.901 8.5 20.642 8.5s15.027-3.036 20.642-8.5l20.642-20.642h70.43c8.046 0 14.572 6.526 14.572 14.572zM314.67 203.635c1.517 3.643 0.76 7.893-2.125 10.625l-68 68c-1.821 1.973-4.402 2.883-6.83 2.883s-5.009-0.911-6.83-2.883l-68-68c-2.883-2.732-3.643-6.982-2.125-10.625 1.518-3.492 5.009-5.92 8.956-5.92h38.856v-68c0-5.313 4.402-9.714 9.714-9.714h38.856c5.313 0 9.714 4.402 9.714 9.714v68h38.856c3.947 0 7.438 2.428 8.956 5.92z"></path>
</svg>
