<!-- Generated by IcoMoon.io -->
<svg version="1.1" xmlns="http://www.w3.org/2000/svg" width="439" height="512" viewBox="0 0 439 512">
<title></title>
<path fill="#16a085" d="M419.428 136c2.857 2.857 5.428 6.286 8 10.286h-134.857v-134.857c4 2.572 7.428 5.143 10.286 8zM283.428 182.857h155.428v301.715c0 15.143-12.286 27.428-27.428 27.428h-384c-15.143 0-27.428-12.286-27.428-27.428v-457.143c0-15.143 12.286-27.428 27.428-27.428h228.571v155.428c0 15.143 12.285 27.428 27.429 27.428zM329.143 393.143v-18.286c0-5.143-4-9.143-9.143-9.143h-201.143c-5.143 0-9.143 4-9.143 9.143v18.286c0 5.143 4 9.143 9.143 9.143h201.143c5.143 0 9.143-4 9.143-9.143zM329.143 320v-18.286c0-5.143-4-9.143-9.143-9.143h-201.143c-5.143 0-9.143 4-9.143 9.143v18.286c0 5.143 4 9.143 9.143 9.143h201.143c5.143 0 9.143-4 9.143-9.143zM329.143 246.857v-18.285c0-5.143-4-9.143-9.143-9.143h-201.143c-5.143 0-9.143 4-9.143 9.143v18.286c0 5.143 4 9.143 9.143 9.143h201.143c5.143 0 9.143-4 9.143-9.143z"></path>
</svg>
