<!-- Generated by IcoMoon.io -->
<svg version="1.1" xmlns="http://www.w3.org/2000/svg" width="512" height="512" viewBox="0 0 512 512">
<title></title>
<g id="icomoon-ignore">
</g>
<path fill="#7f8c8d" d="M330.208 163.816h79.432v92.184h-15.364v153.64h-276.552v-153.64h-15.364v-92.184h79.432c-1.696-4.608-2.679-9.934-2.679-15.484 0-25.456 20.637-46.092 46.092-46.092 11.857 0 22.668 4.477 30.837 11.834l-0.041-0.037c8.127-7.32 18.938-11.796 30.796-11.796 25.456 0 46.092 20.636 46.092 46.092 0 5.552-0.981 10.876-2.782 15.805l0.103-0.321zM225.272 256h-76.82v122.912h76.82v-122.912zM286.728 256v122.912h76.82v-122.912h-76.82zM225.272 194.544h-92.184v30.728h92.184v-30.728zM286.728 194.544v30.728h92.184v-30.728h-92.184zM225.272 163.816c8.487 0 15.364-6.877 15.364-15.364s-6.877-15.364-15.364-15.364v0c-8.487 0-15.364 6.877-15.364 15.364s6.877 15.364 15.364 15.364v0zM286.728 163.816c8.486 0 15.364-6.877 15.364-15.364s-6.877-15.364-15.364-15.364v0c-8.486 0-15.364 6.877-15.364 15.364s6.877 15.364 15.364 15.364v0z"></path>
</svg>
