<!-- Generated by IcoMoon.io -->
<svg version="1.1" xmlns="http://www.w3.org/2000/svg" width="512" height="512" viewBox="0 0 512 512">
<title></title>
<g id="icomoon-ignore">
</g>
<path fill="#feca57" d="M405.611 374.442v-149.611c-4.091 4.675-8.572 8.961-13.442 12.857-27.857 21.429-55.909 43.246-82.986 65.844-14.611 12.272-32.728 27.272-52.986 27.272h-0.389c-20.261 0-38.376-15-52.987-27.272-27.078-22.597-55.13-44.415-82.987-65.844-4.871-3.897-9.35-8.182-13.442-12.857v149.61c0 3.311 2.921 6.234 6.234 6.234h286.754c3.311 0 6.234-2.921 6.234-6.234zM405.611 169.701c0-4.871 1.168-13.442-6.234-13.442h-286.754c-3.311 0-6.234 2.922-6.234 6.234 0 22.208 11.103 41.493 28.636 55.325 26.103 20.454 52.208 41.103 78.118 61.754 10.325 8.376 29.025 26.3 42.661 26.3h0.39c13.636 0 32.338-17.921 42.661-26.3 25.909-20.649 52.014-41.299 78.118-61.754 12.663-9.935 28.636-31.558 28.636-48.118zM430.546 162.493v211.947c0 17.143-14.026 31.168-31.168 31.168h-286.754c-17.143 0-31.168-14.026-31.168-31.168v-211.947c0-17.143 14.025-31.168 31.168-31.168h286.754c17.143 0 31.168 14.025 31.168 31.168z"></path>
</svg>
