<!-- Generated by IcoMoon.io -->
<svg version="1.1" xmlns="http://www.w3.org/2000/svg" width="512" height="512" viewBox="0 0 512 512">
<title></title>
<path fill="#fff" d="M337.735 312.267c-10.348 0-19.682 4.022-26.76 10.495l-97.068-56.61c0.752-3.073 1.226-6.277 1.226-9.546s-0.474-6.457-1.226-9.53l96.038-56.054c7.291 6.816 17.034 11.035 27.791 11.035 22.542 0 40.867-18.325 40.867-40.867s-18.325-40.867-40.867-40.867-40.867 18.325-40.867 40.867c0 3.269 0.474 6.473 1.226 9.53l-96.038 56.054c-7.291-6.8-17.034-11.035-27.791-11.035-22.542 0-40.867 18.325-40.867 40.867s18.325 40.867 40.867 40.867c10.756 0 20.499-4.217 27.791-11.034l97.068 56.61c-0.686 2.86-1.096 5.853-1.096 8.925 0 21.938 17.769 39.707 39.707 39.707s39.707-17.785 39.707-39.707-17.769-39.707-39.707-39.707z"></path>
</svg>
