<!-- Generated by IcoMoon.io -->
<svg version="1.1" xmlns="http://www.w3.org/2000/svg" width="585" height="512" viewBox="0 0 585 512">
<title></title>
<path fill="#16a085" d="M329.143 256c0-80.572-65.714-146.286-146.286-146.286s-146.286 65.714-146.286 146.286 65.715 146.286 146.286 146.286 146.286-65.714 146.286-146.286zM548.572 256c0-80.572-65.714-146.286-146.286-146.286h-110.286c44.572 33.428 73.714 86.572 73.714 146.286s-29.143 112.857-73.714 146.286h110.286c80.572 0 146.286-65.714 146.286-146.286zM585.143 256c0 100.857-82 182.857-182.857 182.857h-219.429c-100.857 0-182.857-82-182.857-182.857s82-182.857 182.857-182.857h219.429c100.857 0 182.857 82 182.857 182.857z"></path>
</svg>
