<!-- Generated by IcoMoon.io -->
<svg version="1.1" xmlns="http://www.w3.org/2000/svg" width="512" height="512" viewBox="0 0 512 512">
<title></title>
<g id="icomoon-ignore">
</g>
<path fill="#7f8c8d" d="M333.353 220.232c-1.464-2.184-3.913-3.499-6.53-3.499h-7.851c-4.341 0-7.851 3.512-7.851 7.851v47.116c0 4.341 3.512 7.851 7.851 7.851h31.412c4.341 0 7.851-3.512 7.851-7.851v-11.775c0-1.546-0.466-3.072-1.322-4.355l-23.557-35.339zM350.377 271.704h-31.412v-47.116h7.851l23.557 35.339v11.775zM385.682 250.787l-31.412-47.116c-4.38-6.568-11.712-10.492-19.601-10.492h-31.412v-15.702c0-12.988-10.57-23.556-23.557-23.556h-117.784c-12.988 0-23.556 10.571-23.556 23.556v86.378c0 12.988 10.571 23.557 23.556 23.557v0 23.557c0 12.988 10.571 23.557 23.556 23.557h8.966c3.512 13.512 15.702 23.557 30.302 23.557 14.584 0 26.778-10.039 30.289-23.557h41.479c3.512 13.512 15.702 23.557 30.301 23.557 14.584 0 26.778-10.039 30.289-23.557h8.981c12.988 0 23.556-10.57 23.556-23.557v-47.116c0-4.664-1.366-9.184-3.959-13.070zM161.917 271.704c-4.335 0-7.851-3.512-7.851-7.851v-86.377c0-4.341 3.518-7.851 7.851-7.851h117.784c4.341 0 7.851 3.512 7.851 7.851v86.377c0 4.341-3.512 7.851-7.851 7.851h-117.784zM224.747 342.379c-8.68 0-15.702-7.034-15.702-15.702s7.028-15.702 15.702-15.702c8.667 0 15.702 7.034 15.702 15.702s-7.047 15.702-15.702 15.702zM326.818 342.379c-8.68 0-15.702-7.034-15.702-15.702s7.027-15.702 15.702-15.702c8.667 0 15.702 7.034 15.702 15.702s-7.034 15.702-15.702 15.702zM373.935 310.966c0 4.341-3.512 7.851-7.851 7.851h-8.978c-3.512-13.512-15.702-23.557-30.289-23.557-14.601 0-26.791 10.039-30.301 23.557h-41.48c-3.512-13.512-15.702-23.557-30.289-23.557-14.601 0-26.791 10.039-30.302 23.557h-8.978c-4.335 0-7.851-3.512-7.851-7.851v-23.557h102.083c12.988 0 23.556-10.57 23.556-23.557v-54.966h31.412c2.622 0 5.075 1.31 6.53 3.499l31.412 47.116c0.856 1.286 1.322 2.81 1.322 4.355v47.116z"></path>
</svg>
